<svg width="800" height="400" viewBox="0 0 800 400" xmlns="http://www.w3.org/2000/svg"><mask id="satori_om-id"><rect x="0" y="0" width="800" height="400" fill="#fff"/></mask><rect x="0" y="0" width="800" height="400" fill="#f0f4f8"/><g  ><path fill="#333333" d="M230.4 195.1L255 195.1L255 200.0L230.4 200.0L230.4 195.1ZM225.3 175.5L231.3 175.5L231.3 221L225.3 221L225.3 175.5ZM254.3 175.5L260.3 175.5L260.3 221L254.3 221L254.3 175.5ZM284.1 221.6L284.1 221.6Q280.6 221.6 277.7 220.4Q274.8 219.2 272.8 217.0Q270.8 214.8 269.7 211.8Q268.6 208.8 268.6 205.3L268.6 205.3L268.6 204.0Q268.6 199.8 269.8 196.6Q271 193.4 273.1 191.1Q275.2 188.9 277.8 187.7Q280.5 186.6 283.3 186.6L283.3 186.6Q287.0 186.6 289.6 187.8Q292.3 189.1 293.9 191.3Q295.6 193.5 296.4 196.5Q297.3 199.6 297.3 203.1L297.3 203.1L297.3 205.7L272 205.7L272 201L291.5 201L291.5 200.6Q291.3 198.3 290.5 196.2Q289.8 194.1 288.0 192.7Q286.3 191.3 283.3 191.3L283.3 191.3Q281.4 191.3 279.7 192.1Q278.1 193.0 276.9 194.6Q275.7 196.2 275.0 198.6Q274.4 200.9 274.4 204.0L274.4 204.0L274.4 205.3Q274.4 207.7 275.0 209.8Q275.7 211.9 277.0 213.5Q278.3 215.1 280.2 216Q282.0 216.9 284.4 216.9L284.4 216.9Q287.5 216.9 289.6 215.7Q291.7 214.4 293.3 212.3L293.3 212.3L296.8 215.1Q295.7 216.8 294.0 218.3Q292.3 219.8 289.9 220.7Q287.4 221.6 284.1 221.6ZM304.5 173L310.3 173L310.3 221L304.5 221L304.5 173ZM320.0 173L325.8 173L325.8 221L320.0 221L320.0 173ZM333.6 204.5L333.6 204.5L333.6 203.8Q333.6 200.1 334.7 197.0Q335.7 193.8 337.7 191.5Q339.7 189.2 342.6 187.9Q345.4 186.6 348.9 186.6L348.9 186.6Q352.5 186.6 355.4 187.9Q358.2 189.2 360.2 191.5Q362.3 193.8 363.3 197.0Q364.4 200.1 364.4 203.8L364.4 203.8L364.4 204.5Q364.4 208.1 363.3 211.3Q362.3 214.4 360.2 216.7Q358.2 219.0 355.4 220.3Q352.6 221.6 349 221.6L349 221.6Q345.4 221.6 342.6 220.3Q339.8 219.0 337.7 216.7Q335.7 214.4 334.7 211.3Q333.6 208.1 333.6 204.5ZM339.4 203.8L339.4 203.8L339.4 204.5Q339.4 207 340.0 209.2Q340.6 211.5 341.8 213.2Q343.0 214.9 344.8 215.9Q346.6 216.9 349 216.9L349 216.9Q351.4 216.9 353.2 215.9Q355.0 214.9 356.2 213.2Q357.3 211.5 358.0 209.2Q358.6 207 358.6 204.5L358.6 204.5L358.6 203.8Q358.6 201.3 358.0 199.0Q357.3 196.8 356.1 195.0Q354.9 193.3 353.1 192.3Q351.3 191.3 348.9 191.3L348.9 191.3Q346.6 191.3 344.8 192.3Q343.0 193.3 341.8 195.0Q340.6 196.8 340.0 199.0Q339.4 201.3 339.4 203.8ZM371.2 214.1L376.9 214.1L376.9 218.8Q376.9 221.6 375.4 224.8Q374 228.0 371.4 230.1L371.4 230.1L368.1 227.8Q369.1 226.4 369.8 225.0Q370.5 223.6 370.9 222.1Q371.2 220.6 371.2 218.9L371.2 218.9L371.2 214.1Z M409.8 221L412.9 207.3L422.0 175.5L426.3 175.5L423.8 187.8L414.1 221L409.8 221ZM397.6 175.5L403.6 175.5L410.8 206.6L412.9 221L408.6 221L397.6 175.5ZM435.8 221L438.0 206.6L445.1 175.5L451.1 175.5L440.1 221L435.8 221ZM422.7 175.5L427 175.5L435.8 207.3L439.0 221L434.6 221L425.3 187.8L422.7 175.5ZM454.4 204.5L454.4 204.5L454.4 203.8Q454.4 200.1 455.4 197.0Q456.5 193.8 458.5 191.5Q460.5 189.2 463.3 187.9Q466.2 186.6 469.7 186.6L469.7 186.6Q473.3 186.6 476.1 187.9Q479 189.2 481.0 191.5Q483.0 193.8 484.1 197.0Q485.2 200.1 485.2 203.8L485.2 203.8L485.2 204.5Q485.2 208.1 484.1 211.3Q483.0 214.4 481.0 216.7Q479 219.0 476.2 220.3Q473.3 221.6 469.8 221.6L469.8 221.6Q466.2 221.6 463.4 220.3Q460.5 219.0 458.5 216.7Q456.5 214.4 455.4 211.3Q454.4 208.1 454.4 204.5ZM460.2 203.8L460.2 203.8L460.2 204.5Q460.2 207 460.8 209.2Q461.3 211.5 462.5 213.2Q463.8 214.9 465.6 215.9Q467.4 216.9 469.8 216.9L469.8 216.9Q472.2 216.9 474.0 215.9Q475.8 214.9 476.9 213.2Q478.1 211.5 478.7 209.2Q479.3 207 479.3 204.5L479.3 204.5L479.3 203.8Q479.3 201.3 478.7 199.0Q478.1 196.8 476.9 195.0Q475.7 193.3 473.9 192.3Q472.1 191.3 469.7 191.3L469.7 191.3Q467.3 191.3 465.5 192.3Q463.8 193.3 462.5 195.0Q461.3 196.8 460.8 199.0Q460.2 201.3 460.2 203.8ZM498.0 187.2L498.2 192.5L498.2 221L492.4 221L492.4 187.2L498.0 187.2ZM508.8 187L508.8 187L508.7 192.4Q508 192.2 507.4 192.2Q506.7 192.1 505.9 192.1L505.9 192.1Q503.9 192.1 502.4 192.8Q500.8 193.4 499.8 194.5Q498.7 195.6 498.1 197.2Q497.5 198.7 497.3 200.6L497.3 200.6L495.7 201.5Q495.7 198.4 496.3 195.8Q496.9 193.1 498.2 191.0Q499.5 188.9 501.5 187.7Q503.4 186.6 506.2 186.6L506.2 186.6Q506.8 186.6 507.6 186.7Q508.4 186.8 508.8 187ZM514.6 173L520.4 173L520.4 221L514.6 221L514.6 173ZM551.5 221L551.0 214.4L551.0 173L556.8 173L556.8 221L551.5 221ZM528.2 204.5L528.2 204.5L528.2 203.8Q528.2 199.9 529.2 196.8Q530.1 193.6 531.9 191.3Q533.7 189.0 536.1 187.8Q538.6 186.6 541.6 186.6L541.6 186.6Q544.8 186.6 547.2 187.7Q549.6 188.8 551.2 190.9Q552.9 193 553.9 196.0Q554.8 198.9 555.2 202.7L555.2 202.7L555.2 205.6Q554.9 209.3 553.9 212.3Q552.9 215.2 551.2 217.3Q549.6 219.4 547.2 220.5Q544.8 221.6 541.5 221.6L541.5 221.6Q538.6 221.6 536.1 220.3Q533.7 219.1 531.9 216.8Q530.1 214.4 529.2 211.3Q528.2 208.2 528.2 204.5ZM534.0 203.8L534.0 203.8L534.0 204.5Q534.0 207 534.5 209.2Q535.1 211.4 536.2 213.1Q537.3 214.8 538.9 215.8Q540.6 216.7 543.0 216.7L543.0 216.7Q545.8 216.7 547.7 215.5Q549.6 214.3 550.7 212.3Q551.8 210.3 552.4 207.9L552.4 207.9L552.4 200.4Q552.1 198.7 551.4 197.1Q550.7 195.5 549.5 194.2Q548.4 192.9 546.8 192.2Q545.2 191.4 543.0 191.4L543.0 191.4Q540.7 191.4 539.0 192.4Q537.3 193.4 536.2 195.1Q535.1 196.8 534.5 199.0Q534.0 201.3 534.0 203.8ZM566.6 175.5L572.6 175.5L572.2 208.2L567 208.2L566.6 175.5ZM566.4 218.1L566.4 218.1Q566.4 216.7 567.2 215.7Q568.1 214.8 569.8 214.8L569.8 214.8Q571.4 214.8 572.3 215.7Q573.2 216.7 573.2 218.1L573.2 218.1Q573.2 219.4 572.3 220.4Q571.4 221.4 569.8 221.4L569.8 221.4Q568.1 221.4 567.2 220.4Q566.4 219.4 566.4 218.1Z "/></g></svg>