<svg width="800" height="400" viewBox="0 0 800 400" xmlns="http://www.w3.org/2000/svg"><mask id="satori_om-id"><rect x="0" y="0" width="800" height="400" fill="#fff"/></mask><rect x="0" y="0" width="800" height="400" fill="#1e1e2e"/><g  ><path fill="#cdd6f4" d="M165.4 195.1L190 195.1L190 200.0L165.4 200.0L165.4 195.1ZM160.3 175.5L166.3 175.5L166.3 221L160.3 221L160.3 175.5ZM189.3 175.5L195.3 175.5L195.3 221L189.3 221L189.3 175.5ZM219.1 221.6L219.1 221.6Q215.6 221.6 212.7 220.4Q209.8 219.2 207.8 217.0Q205.8 214.8 204.7 211.8Q203.6 208.8 203.6 205.3L203.6 205.3L203.6 204.0Q203.6 199.8 204.8 196.6Q206 193.4 208.1 191.1Q210.2 188.9 212.8 187.7Q215.5 186.6 218.3 186.6L218.3 186.6Q222.0 186.6 224.6 187.8Q227.3 189.1 228.9 191.3Q230.6 193.5 231.4 196.5Q232.3 199.6 232.3 203.1L232.3 203.1L232.3 205.7L207 205.7L207 201L226.5 201L226.5 200.6Q226.3 198.3 225.5 196.2Q224.8 194.1 223.0 192.7Q221.3 191.3 218.3 191.3L218.3 191.3Q216.4 191.3 214.7 192.1Q213.1 193.0 211.9 194.6Q210.7 196.2 210.0 198.6Q209.4 200.9 209.4 204.0L209.4 204.0L209.4 205.3Q209.4 207.7 210.0 209.8Q210.7 211.9 212.0 213.5Q213.3 215.1 215.2 216Q217.0 216.9 219.4 216.9L219.4 216.9Q222.5 216.9 224.6 215.7Q226.7 214.4 228.3 212.3L228.3 212.3L231.8 215.1Q230.7 216.8 229.0 218.3Q227.3 219.8 224.9 220.7Q222.4 221.6 219.1 221.6ZM239.5 173L245.3 173L245.3 221L239.5 221L239.5 173ZM255.0 173L260.8 173L260.8 221L255.0 221L255.0 173ZM268.6 204.5L268.6 204.5L268.6 203.8Q268.6 200.1 269.7 197.0Q270.7 193.8 272.7 191.5Q274.7 189.2 277.6 187.9Q280.4 186.6 283.9 186.6L283.9 186.6Q287.5 186.6 290.4 187.9Q293.2 189.2 295.2 191.5Q297.3 193.8 298.3 197.0Q299.4 200.1 299.4 203.8L299.4 203.8L299.4 204.5Q299.4 208.1 298.3 211.3Q297.3 214.4 295.2 216.7Q293.2 219.0 290.4 220.3Q287.6 221.6 284 221.6L284 221.6Q280.4 221.6 277.6 220.3Q274.8 219.0 272.7 216.7Q270.7 214.4 269.7 211.3Q268.6 208.1 268.6 204.5ZM274.4 203.8L274.4 203.8L274.4 204.5Q274.4 207 275.0 209.2Q275.6 211.5 276.8 213.2Q278.0 214.9 279.8 215.9Q281.6 216.9 284 216.9L284 216.9Q286.4 216.9 288.2 215.9Q290.0 214.9 291.2 213.2Q292.3 211.5 293.0 209.2Q293.6 207 293.6 204.5L293.6 204.5L293.6 203.8Q293.6 201.3 293.0 199.0Q292.3 196.8 291.1 195.0Q289.9 193.3 288.1 192.3Q286.3 191.3 283.9 191.3L283.9 191.3Q281.6 191.3 279.8 192.3Q278.0 193.3 276.8 195.0Q275.6 196.8 275.0 199.0Q274.4 201.3 274.4 203.8ZM306.2 214.1L311.9 214.1L311.9 218.8Q311.9 221.6 310.4 224.8Q309 228.0 306.4 230.1L306.4 230.1L303.1 227.8Q304.1 226.4 304.8 225.0Q305.5 223.6 305.9 222.1Q306.2 220.6 306.2 218.9L306.2 218.9L306.2 214.1Z M355.1 207.7L355.1 207.7L355.1 175.5L361.1 175.5L361.1 207.7Q361.1 212.2 359.2 215.3Q357.4 218.4 354.1 220.0Q350.9 221.6 346.7 221.6L346.7 221.6Q342.5 221.6 339.3 220.2Q336.0 218.8 334.2 215.8Q332.3 212.9 332.3 208.4L332.3 208.4L338.4 208.4Q338.4 211.3 339.4 213.1Q340.5 215.0 342.4 215.8Q344.3 216.7 346.7 216.7L346.7 216.7Q349.1 216.7 351.0 215.7Q352.9 214.7 354.0 212.7Q355.1 210.7 355.1 207.7ZM395.5 209.5L395.5 209.5Q395.5 207.9 395.0 206.7Q394.6 205.4 393.4 204.4Q392.2 203.4 390.0 202.5Q387.9 201.6 384.7 200.7L384.7 200.7Q381.3 199.7 378.6 198.5Q375.9 197.2 374.0 195.6Q372.0 194.0 371 192.0Q370.0 189.9 370.0 187.3L370.0 187.3Q370.0 184.6 371.1 182.3Q372.2 180.1 374.2 178.4Q376.3 176.8 379.1 175.8Q381.9 174.9 385.4 174.9L385.4 174.9Q390.6 174.9 394.1 176.8Q397.7 178.8 399.6 181.9Q401.5 185.1 401.5 188.6L401.5 188.6L395.5 188.6Q395.5 186.1 394.4 184.1Q393.3 182.1 391.1 181.0Q388.8 179.8 385.4 179.8L385.4 179.8Q382.2 179.8 380.1 180.8Q378.0 181.8 377.0 183.4Q376 185.1 376 187.2L376 187.2Q376 188.6 376.6 189.8Q377.2 191.0 378.5 192.0Q379.8 193.0 381.8 193.8Q383.8 194.7 386.7 195.4L386.7 195.4Q390.5 196.5 393.3 197.9Q396.2 199.2 398.0 200.9Q399.8 202.6 400.7 204.7Q401.6 206.8 401.6 209.4L401.6 209.4Q401.6 212.2 400.5 214.5Q399.3 216.7 397.3 218.3Q395.2 219.9 392.2 220.8Q389.3 221.6 385.7 221.6L385.7 221.6Q382.6 221.6 379.5 220.8Q376.5 219.9 374.0 218.1Q371.5 216.4 370.0 213.8Q368.5 211.2 368.5 207.8L368.5 207.8L374.5 207.8Q374.5 210.2 375.4 211.8Q376.3 213.5 377.9 214.6Q379.5 215.7 381.5 216.2Q383.5 216.7 385.7 216.7L385.7 216.7Q388.9 216.7 391.1 215.8Q393.3 215.0 394.4 213.3Q395.5 211.7 395.5 209.5ZM406.2 175.5L413.2 175.5L424.1 192.9L435.1 175.5L442.1 175.5L427.7 198.0L442.4 221L435.3 221L424.1 203.2L412.9 221L405.8 221L420.5 198.0L406.2 175.5Z M474.1 221L477.3 207.3L486.3 175.5L490.7 175.5L488.1 187.8L478.4 221L474.1 221ZM461.9 175.5L467.9 175.5L475.1 206.6L477.3 221L472.9 221L461.9 175.5ZM500.1 221L502.3 206.6L509.4 175.5L515.4 175.5L504.4 221L500.1 221ZM487 175.5L491.3 175.5L500.1 207.3L503.3 221L498.9 221L489.6 187.8L487 175.5ZM518.7 204.5L518.7 204.5L518.7 203.8Q518.7 200.1 519.8 197.0Q520.8 193.8 522.8 191.5Q524.8 189.2 527.7 187.9Q530.5 186.6 534.0 186.6L534.0 186.6Q537.6 186.6 540.5 187.9Q543.3 189.2 545.3 191.5Q547.3 193.8 548.4 197.0Q549.5 200.1 549.5 203.8L549.5 203.8L549.5 204.5Q549.5 208.1 548.4 211.3Q547.3 214.4 545.3 216.7Q543.3 219.0 540.5 220.3Q537.7 221.6 534.1 221.6L534.1 221.6Q530.5 221.6 527.7 220.3Q524.8 219.0 522.8 216.7Q520.8 214.4 519.8 211.3Q518.7 208.1 518.7 204.5ZM524.5 203.8L524.5 203.8L524.5 204.5Q524.5 207 525.1 209.2Q525.7 211.5 526.9 213.2Q528.1 214.9 529.9 215.9Q531.7 216.9 534.1 216.9L534.1 216.9Q536.5 216.9 538.3 215.9Q540.1 214.9 541.3 213.2Q542.4 211.5 543.0 209.2Q543.7 207 543.7 204.5L543.7 204.5L543.7 203.8Q543.7 201.3 543.0 199.0Q542.4 196.8 541.2 195.0Q540.0 193.3 538.2 192.3Q536.4 191.3 534.0 191.3L534.0 191.3Q531.7 191.3 529.9 192.3Q528.1 193.3 526.9 195.0Q525.7 196.8 525.1 199.0Q524.5 201.3 524.5 203.8ZM562.3 187.2L562.5 192.5L562.5 221L556.7 221L556.7 187.2L562.3 187.2ZM573.1 187L573.1 187L573.0 192.4Q572.3 192.2 571.7 192.2Q571.0 192.1 570.2 192.1L570.2 192.1Q568.2 192.1 566.7 192.8Q565.2 193.4 564.1 194.5Q563.0 195.6 562.4 197.2Q561.8 198.7 561.6 200.6L561.6 200.6L560 201.5Q560 198.4 560.6 195.8Q561.2 193.1 562.5 191.0Q563.8 188.9 565.8 187.7Q567.8 186.6 570.5 186.6L570.5 186.6Q571.1 186.6 571.9 186.7Q572.8 186.8 573.1 187ZM578.9 173L584.7 173L584.7 221L578.9 221L578.9 173ZM615.8 221L615.3 214.4L615.3 173L621.1 173L621.1 221L615.8 221ZM592.5 204.5L592.5 204.5L592.5 203.8Q592.5 199.9 593.5 196.8Q594.4 193.6 596.2 191.3Q598.0 189.0 600.4 187.8Q602.9 186.6 605.9 186.6L605.9 186.6Q609.1 186.6 611.5 187.7Q613.9 188.8 615.5 190.9Q617.2 193 618.2 196.0Q619.2 198.9 619.5 202.7L619.5 202.7L619.5 205.6Q619.2 209.3 618.2 212.3Q617.2 215.2 615.5 217.3Q613.9 219.4 611.5 220.5Q609.1 221.6 605.8 221.6L605.8 221.6Q602.9 221.6 600.4 220.3Q598.0 219.1 596.2 216.8Q594.4 214.4 593.5 211.3Q592.5 208.2 592.5 204.5ZM598.3 203.8L598.3 203.8L598.3 204.5Q598.3 207 598.9 209.2Q599.4 211.4 600.5 213.1Q601.6 214.8 603.3 215.8Q604.9 216.7 607.3 216.7L607.3 216.7Q610.2 216.7 612.0 215.5Q613.9 214.3 615 212.3Q616.1 210.3 616.8 207.9L616.8 207.9L616.8 200.4Q616.4 198.7 615.7 197.1Q615.0 195.5 613.9 194.2Q612.8 192.9 611.1 192.2Q609.5 191.4 607.3 191.4L607.3 191.4Q605.0 191.4 603.3 192.4Q601.6 193.4 600.5 195.1Q599.4 196.8 598.9 199.0Q598.3 201.3 598.3 203.8ZM630.9 175.5L636.9 175.5L636.5 208.2L631.3 208.2L630.9 175.5ZM630.7 218.1L630.7 218.1Q630.7 216.7 631.5 215.7Q632.4 214.8 634.1 214.8L634.1 214.8Q635.8 214.8 636.6 215.7Q637.5 216.7 637.5 218.1L637.5 218.1Q637.5 219.4 636.6 220.4Q635.8 221.4 634.1 221.4L634.1 221.4Q632.4 221.4 631.5 220.4Q630.7 219.4 630.7 218.1Z "/></g></svg>